<svg width="48" height="48" viewBox="0 0 48 48" fill="none" xmlns="http://www.w3.org/2000/svg">
<rect x="0.5" y="0.5" width="47" height="47" rx="23.5" fill="white"/>
<rect x="0.5" y="0.5" width="47" height="47" rx="23.5" stroke="#F0F0F3"/>
<path d="M16.408 14C15.0773 14 14.0002 15.079 14 16.4067C14 17.7356 15.0771 18.8144 16.4082 18.8144C17.7356 18.8144 18.8142 17.7356 18.8142 16.4067C18.8142 15.0788 17.7354 14 16.408 14Z" fill="#0F161D"/>
<path d="M18.4833 20.6406H14.3311V33.9999H18.4833V20.6406Z" fill="#0F161D"/>
<path d="M29.0535 20.3085C27.0337 20.3085 25.6794 21.4159 25.125 22.4661H25.0695V20.6407H21.0871H21.0869V33.9998H25.2355V27.3909C25.2355 25.6486 25.5672 23.961 27.7274 23.961C29.8566 23.961 29.885 25.9537 29.885 27.5027V33.9995H34.0342V26.6721C34.0342 23.0753 33.2581 20.3085 29.0535 20.3085Z" fill="#0F161D"/>
</svg>
